<mxfile host="app.diagrams.net" modified="2023-04-18T22:58:10.674Z" agent="Mozilla/5.0 (Windows NT 10.0; Win64; x64) AppleWebKit/537.36 (KHTML, like Gecko) Chrome/112.0.0.0 Safari/537.36" etag="xD-ClgiZVdQOX6NLRnz1" version="21.1.8" type="github">
  <diagram name="Page-1" id="2YBvvXClWsGukQMizWep">
    <mxGraphModel dx="890" dy="477" grid="1" gridSize="10" guides="1" tooltips="1" connect="1" arrows="1" fold="1" page="1" pageScale="1" pageWidth="850" pageHeight="1100" math="0" shadow="0">
      <root>
        <mxCell id="0" />
        <mxCell id="1" parent="0" />
        <mxCell id="aM9ryv3xv72pqoxQDRHE-1" value="Контроллер" style="shape=umlLifeline;perimeter=lifelinePerimeter;whiteSpace=wrap;html=1;container=0;dropTarget=0;collapsible=0;recursiveResize=0;outlineConnect=0;portConstraint=eastwest;newEdgeStyle={&quot;edgeStyle&quot;:&quot;elbowEdgeStyle&quot;,&quot;elbow&quot;:&quot;vertical&quot;,&quot;curved&quot;:0,&quot;rounded&quot;:0};" parent="1" vertex="1">
          <mxGeometry x="120" y="40" width="80" height="310" as="geometry" />
        </mxCell>
        <mxCell id="aM9ryv3xv72pqoxQDRHE-2" value="" style="html=1;points=[];perimeter=orthogonalPerimeter;outlineConnect=0;targetShapes=umlLifeline;portConstraint=eastwest;newEdgeStyle={&quot;edgeStyle&quot;:&quot;elbowEdgeStyle&quot;,&quot;elbow&quot;:&quot;vertical&quot;,&quot;curved&quot;:0,&quot;rounded&quot;:0};" parent="aM9ryv3xv72pqoxQDRHE-1" vertex="1">
          <mxGeometry x="35" y="70" width="10" height="190" as="geometry" />
        </mxCell>
        <mxCell id="aM9ryv3xv72pqoxQDRHE-3" value="Поиск соотв." style="html=1;verticalAlign=bottom;startArrow=oval;endArrow=block;startSize=8;edgeStyle=elbowEdgeStyle;elbow=vertical;curved=0;rounded=0;" parent="aM9ryv3xv72pqoxQDRHE-1" target="aM9ryv3xv72pqoxQDRHE-2" edge="1">
          <mxGeometry relative="1" as="geometry">
            <mxPoint x="-80" y="70" as="sourcePoint" />
          </mxGeometry>
        </mxCell>
        <mxCell id="59-DQMz_L0b1S0gPW8hh-35" value="" style="shape=umlDestroy;whiteSpace=wrap;html=1;strokeWidth=3;targetShapes=umlLifeline;" vertex="1" parent="aM9ryv3xv72pqoxQDRHE-1">
          <mxGeometry x="25" y="280" width="30" height="30" as="geometry" />
        </mxCell>
        <mxCell id="aM9ryv3xv72pqoxQDRHE-5" value="Резюме" style="shape=umlLifeline;perimeter=lifelinePerimeter;whiteSpace=wrap;html=1;container=0;dropTarget=0;collapsible=0;recursiveResize=0;outlineConnect=0;portConstraint=eastwest;newEdgeStyle={&quot;edgeStyle&quot;:&quot;elbowEdgeStyle&quot;,&quot;elbow&quot;:&quot;vertical&quot;,&quot;curved&quot;:0,&quot;rounded&quot;:0};" parent="1" vertex="1">
          <mxGeometry x="240" y="40" width="80" height="310" as="geometry" />
        </mxCell>
        <mxCell id="aM9ryv3xv72pqoxQDRHE-6" value="" style="html=1;points=[];perimeter=orthogonalPerimeter;outlineConnect=0;targetShapes=umlLifeline;portConstraint=eastwest;newEdgeStyle={&quot;edgeStyle&quot;:&quot;elbowEdgeStyle&quot;,&quot;elbow&quot;:&quot;vertical&quot;,&quot;curved&quot;:0,&quot;rounded&quot;:0};" parent="aM9ryv3xv72pqoxQDRHE-5" vertex="1">
          <mxGeometry x="35" y="110" width="10" height="20" as="geometry" />
        </mxCell>
        <mxCell id="59-DQMz_L0b1S0gPW8hh-30" value="" style="html=1;points=[];perimeter=orthogonalPerimeter;outlineConnect=0;targetShapes=umlLifeline;portConstraint=eastwest;newEdgeStyle={&quot;edgeStyle&quot;:&quot;elbowEdgeStyle&quot;,&quot;elbow&quot;:&quot;vertical&quot;,&quot;curved&quot;:0,&quot;rounded&quot;:0};" vertex="1" parent="aM9ryv3xv72pqoxQDRHE-5">
          <mxGeometry x="35" y="150" width="10" height="20" as="geometry" />
        </mxCell>
        <mxCell id="59-DQMz_L0b1S0gPW8hh-31" value="валидация" style="html=1;verticalAlign=bottom;endArrow=block;edgeStyle=elbowEdgeStyle;elbow=vertical;curved=0;rounded=0;" edge="1" parent="aM9ryv3xv72pqoxQDRHE-5" target="59-DQMz_L0b1S0gPW8hh-30">
          <mxGeometry relative="1" as="geometry">
            <mxPoint x="-75" y="150" as="sourcePoint" />
            <Array as="points">
              <mxPoint x="-20" y="150" />
            </Array>
          </mxGeometry>
        </mxCell>
        <mxCell id="59-DQMz_L0b1S0gPW8hh-32" value="return" style="html=1;verticalAlign=bottom;endArrow=open;dashed=1;endSize=8;edgeStyle=elbowEdgeStyle;elbow=vertical;curved=0;rounded=0;" edge="1" parent="aM9ryv3xv72pqoxQDRHE-5">
          <mxGeometry relative="1" as="geometry">
            <mxPoint x="-75" y="170" as="targetPoint" />
            <Array as="points">
              <mxPoint x="-20" y="170" />
              <mxPoint x="15" y="310" />
            </Array>
            <mxPoint x="40" y="170" as="sourcePoint" />
          </mxGeometry>
        </mxCell>
        <mxCell id="59-DQMz_L0b1S0gPW8hh-37" value="" style="shape=umlDestroy;whiteSpace=wrap;html=1;strokeWidth=3;targetShapes=umlLifeline;" vertex="1" parent="aM9ryv3xv72pqoxQDRHE-5">
          <mxGeometry x="25" y="280" width="30" height="30" as="geometry" />
        </mxCell>
        <mxCell id="59-DQMz_L0b1S0gPW8hh-46" value="сохранение в БД" style="html=1;verticalAlign=bottom;endArrow=block;edgeStyle=elbowEdgeStyle;elbow=vertical;curved=0;rounded=0;" edge="1" parent="aM9ryv3xv72pqoxQDRHE-5" target="59-DQMz_L0b1S0gPW8hh-45">
          <mxGeometry relative="1" as="geometry">
            <mxPoint x="-75" y="190" as="sourcePoint" />
            <Array as="points">
              <mxPoint x="-20" y="190" />
            </Array>
          </mxGeometry>
        </mxCell>
        <mxCell id="59-DQMz_L0b1S0gPW8hh-47" value="return" style="html=1;verticalAlign=bottom;endArrow=open;dashed=1;endSize=8;edgeStyle=elbowEdgeStyle;elbow=vertical;curved=0;rounded=0;" edge="1" parent="aM9ryv3xv72pqoxQDRHE-5" source="59-DQMz_L0b1S0gPW8hh-45">
          <mxGeometry relative="1" as="geometry">
            <mxPoint x="-75" y="210" as="targetPoint" />
            <Array as="points">
              <mxPoint x="-20" y="210" />
              <mxPoint x="15" y="350" />
            </Array>
            <mxPoint x="40" y="210" as="sourcePoint" />
          </mxGeometry>
        </mxCell>
        <mxCell id="aM9ryv3xv72pqoxQDRHE-7" value="create" style="html=1;verticalAlign=bottom;endArrow=block;edgeStyle=elbowEdgeStyle;elbow=vertical;curved=0;rounded=0;" parent="1" target="aM9ryv3xv72pqoxQDRHE-6" edge="1">
          <mxGeometry relative="1" as="geometry">
            <mxPoint x="165" y="150" as="sourcePoint" />
            <Array as="points">
              <mxPoint x="220" y="150" />
            </Array>
          </mxGeometry>
        </mxCell>
        <mxCell id="aM9ryv3xv72pqoxQDRHE-8" value="return" style="html=1;verticalAlign=bottom;endArrow=open;dashed=1;endSize=8;edgeStyle=elbowEdgeStyle;elbow=vertical;curved=0;rounded=0;" parent="1" source="aM9ryv3xv72pqoxQDRHE-5" edge="1">
          <mxGeometry relative="1" as="geometry">
            <mxPoint x="165" y="170" as="targetPoint" />
            <Array as="points">
              <mxPoint x="220" y="170" />
              <mxPoint x="255" y="310" />
            </Array>
          </mxGeometry>
        </mxCell>
        <mxCell id="59-DQMz_L0b1S0gPW8hh-1" value="" style="shape=umlLifeline;perimeter=lifelinePerimeter;whiteSpace=wrap;html=1;container=1;dropTarget=0;collapsible=0;recursiveResize=0;outlineConnect=0;portConstraint=eastwest;newEdgeStyle={&quot;edgeStyle&quot;:&quot;elbowEdgeStyle&quot;,&quot;elbow&quot;:&quot;vertical&quot;,&quot;curved&quot;:0,&quot;rounded&quot;:0};participant=umlActor;" vertex="1" parent="1">
          <mxGeometry x="30" y="40" width="25" height="310" as="geometry" />
        </mxCell>
        <mxCell id="59-DQMz_L0b1S0gPW8hh-34" value="" style="shape=umlDestroy;whiteSpace=wrap;html=1;strokeWidth=3;targetShapes=umlLifeline;" vertex="1" parent="59-DQMz_L0b1S0gPW8hh-1">
          <mxGeometry x="-2.5" y="280" width="30" height="30" as="geometry" />
        </mxCell>
        <mxCell id="59-DQMz_L0b1S0gPW8hh-8" value="Репозиторий&lt;br&gt;Резюме" style="shape=umlLifeline;perimeter=lifelinePerimeter;whiteSpace=wrap;html=1;container=0;dropTarget=0;collapsible=0;recursiveResize=0;outlineConnect=0;portConstraint=eastwest;newEdgeStyle={&quot;edgeStyle&quot;:&quot;elbowEdgeStyle&quot;,&quot;elbow&quot;:&quot;vertical&quot;,&quot;curved&quot;:0,&quot;rounded&quot;:0};" vertex="1" parent="1">
          <mxGeometry x="360" y="40" width="80" height="310" as="geometry" />
        </mxCell>
        <mxCell id="59-DQMz_L0b1S0gPW8hh-38" value="" style="shape=umlDestroy;whiteSpace=wrap;html=1;strokeWidth=3;targetShapes=umlLifeline;" vertex="1" parent="59-DQMz_L0b1S0gPW8hh-8">
          <mxGeometry x="25" y="280" width="30" height="30" as="geometry" />
        </mxCell>
        <mxCell id="59-DQMz_L0b1S0gPW8hh-45" value="" style="html=1;points=[];perimeter=orthogonalPerimeter;outlineConnect=0;targetShapes=umlLifeline;portConstraint=eastwest;newEdgeStyle={&quot;edgeStyle&quot;:&quot;elbowEdgeStyle&quot;,&quot;elbow&quot;:&quot;vertical&quot;,&quot;curved&quot;:0,&quot;rounded&quot;:0};" vertex="1" parent="59-DQMz_L0b1S0gPW8hh-8">
          <mxGeometry x="35" y="190" width="10" height="20" as="geometry" />
        </mxCell>
        <mxCell id="59-DQMz_L0b1S0gPW8hh-12" value="Сервис&lt;br&gt;Вакансии" style="shape=umlLifeline;perimeter=lifelinePerimeter;whiteSpace=wrap;html=1;container=0;dropTarget=0;collapsible=0;recursiveResize=0;outlineConnect=0;portConstraint=eastwest;newEdgeStyle={&quot;edgeStyle&quot;:&quot;elbowEdgeStyle&quot;,&quot;elbow&quot;:&quot;vertical&quot;,&quot;curved&quot;:0,&quot;rounded&quot;:0};" vertex="1" parent="1">
          <mxGeometry x="480" y="40" width="80" height="310" as="geometry" />
        </mxCell>
        <mxCell id="59-DQMz_L0b1S0gPW8hh-39" value="" style="shape=umlDestroy;whiteSpace=wrap;html=1;strokeWidth=3;targetShapes=umlLifeline;" vertex="1" parent="59-DQMz_L0b1S0gPW8hh-12">
          <mxGeometry x="25" y="280" width="30" height="30" as="geometry" />
        </mxCell>
        <mxCell id="6fikgWHchr_Tb5uM8Wun-12" value="return List&amp;lt;vacancy&amp;gt;" style="html=1;verticalAlign=bottom;endArrow=open;dashed=1;endSize=8;edgeStyle=elbowEdgeStyle;elbow=vertical;curved=0;rounded=0;" edge="1" parent="59-DQMz_L0b1S0gPW8hh-12" source="6fikgWHchr_Tb5uM8Wun-13">
          <mxGeometry relative="1" as="geometry">
            <mxPoint x="-314" y="250" as="targetPoint" />
            <Array as="points">
              <mxPoint x="-140" y="250" />
              <mxPoint x="-105" y="390" />
            </Array>
            <mxPoint x="-80" y="250" as="sourcePoint" />
          </mxGeometry>
        </mxCell>
        <mxCell id="6fikgWHchr_Tb5uM8Wun-13" value="" style="html=1;points=[];perimeter=orthogonalPerimeter;outlineConnect=0;targetShapes=umlLifeline;portConstraint=eastwest;newEdgeStyle={&quot;edgeStyle&quot;:&quot;elbowEdgeStyle&quot;,&quot;elbow&quot;:&quot;vertical&quot;,&quot;curved&quot;:0,&quot;rounded&quot;:0};" vertex="1" parent="59-DQMz_L0b1S0gPW8hh-12">
          <mxGeometry x="35" y="230" width="10" height="20" as="geometry" />
        </mxCell>
        <mxCell id="59-DQMz_L0b1S0gPW8hh-14" value="Репозиторий&lt;br&gt;Вакансии" style="shape=umlLifeline;perimeter=lifelinePerimeter;whiteSpace=wrap;html=1;container=0;dropTarget=0;collapsible=0;recursiveResize=0;outlineConnect=0;portConstraint=eastwest;newEdgeStyle={&quot;edgeStyle&quot;:&quot;elbowEdgeStyle&quot;,&quot;elbow&quot;:&quot;vertical&quot;,&quot;curved&quot;:0,&quot;rounded&quot;:0};" vertex="1" parent="1">
          <mxGeometry x="600" y="40" width="80" height="310" as="geometry" />
        </mxCell>
        <mxCell id="59-DQMz_L0b1S0gPW8hh-40" value="" style="shape=umlDestroy;whiteSpace=wrap;html=1;strokeWidth=3;targetShapes=umlLifeline;" vertex="1" parent="59-DQMz_L0b1S0gPW8hh-14">
          <mxGeometry x="25" y="280" width="30" height="30" as="geometry" />
        </mxCell>
        <mxCell id="6fikgWHchr_Tb5uM8Wun-14" value="" style="html=1;points=[];perimeter=orthogonalPerimeter;outlineConnect=0;targetShapes=umlLifeline;portConstraint=eastwest;newEdgeStyle={&quot;edgeStyle&quot;:&quot;elbowEdgeStyle&quot;,&quot;elbow&quot;:&quot;vertical&quot;,&quot;curved&quot;:0,&quot;rounded&quot;:0};" vertex="1" parent="59-DQMz_L0b1S0gPW8hh-14">
          <mxGeometry x="35" y="230" width="10" height="10" as="geometry" />
        </mxCell>
        <mxCell id="59-DQMz_L0b1S0gPW8hh-21" value="return" style="html=1;verticalAlign=bottom;endArrow=open;dashed=1;endSize=8;edgeStyle=elbowEdgeStyle;elbow=vertical;curved=0;rounded=0;" edge="1" parent="1" target="59-DQMz_L0b1S0gPW8hh-1">
          <mxGeometry relative="1" as="geometry">
            <mxPoint x="80" y="260" as="targetPoint" />
            <Array as="points">
              <mxPoint x="140" y="300" />
              <mxPoint x="130" y="260" />
              <mxPoint x="120" y="260" />
              <mxPoint x="230" y="260" />
              <mxPoint x="255" y="280" />
            </Array>
            <mxPoint x="160" y="300" as="sourcePoint" />
          </mxGeometry>
        </mxCell>
        <mxCell id="6fikgWHchr_Tb5uM8Wun-11" value="Подбор вакансий" style="html=1;verticalAlign=bottom;endArrow=block;edgeStyle=elbowEdgeStyle;elbow=vertical;curved=0;rounded=0;" edge="1" parent="1" target="6fikgWHchr_Tb5uM8Wun-13">
          <mxGeometry relative="1" as="geometry">
            <mxPoint x="165" y="271" as="sourcePoint" />
            <Array as="points">
              <mxPoint x="340" y="270" />
            </Array>
          </mxGeometry>
        </mxCell>
        <mxCell id="6fikgWHchr_Tb5uM8Wun-15" value="select" style="html=1;verticalAlign=bottom;endArrow=block;edgeStyle=elbowEdgeStyle;elbow=vertical;curved=0;rounded=0;" edge="1" parent="1">
          <mxGeometry relative="1" as="geometry">
            <mxPoint x="525" y="271" as="sourcePoint" />
            <Array as="points">
              <mxPoint x="700" y="270" />
            </Array>
            <mxPoint x="635" y="269" as="targetPoint" />
          </mxGeometry>
        </mxCell>
        <mxCell id="6fikgWHchr_Tb5uM8Wun-16" value="return" style="html=1;verticalAlign=bottom;endArrow=open;dashed=1;endSize=8;edgeStyle=elbowEdgeStyle;elbow=vertical;curved=0;rounded=0;" edge="1" parent="1">
          <mxGeometry y="9" relative="1" as="geometry">
            <mxPoint x="634" y="281" as="sourcePoint" />
            <mxPoint x="526" y="281" as="targetPoint" />
            <mxPoint as="offset" />
          </mxGeometry>
        </mxCell>
      </root>
    </mxGraphModel>
  </diagram>
</mxfile>
